<svg xmlns="http://www.w3.org/2000/svg" width="85" height="85" viewBox="0 0 85 85">
  <g fill="none" fill-rule="evenodd">
    <rect width="54" height="54" x="15.5" y="15.5" stroke="#000" transform="rotate(45 42.5 42.5)"/>
    <path fill="#000" fill-rule="nonzero" d="M46.4677675,36.2101821 C46.1953001,35.9299393 45.7418228,35.9299393 45.4598285,36.2101821 C45.1873611,36.4809572 45.1873611,36.9316178 45.4598285,37.2017618 L50.5706574,42.2808463 L33.7056208,42.2808463 C33.3124802,42.2814775 33,42.5920168 33,42.9827156 C33,43.3734144 33.3124802,43.6940525 33.7056208,43.6940525 L50.5706574,43.6940525 L45.4598285,48.7636694 C45.1873611,49.0439122 45.1873611,49.495204 45.4598285,49.765348 C45.7418228,50.0455907 46.1959352,50.0455907 46.4677675,49.765348 L52.7885043,43.4838705 C53.0704986,43.2130954 53.0704986,42.7624347 52.7885043,42.4922908 L46.4677675,36.2101821 Z"/>
  </g>
</svg>
