<svg xmlns="http://www.w3.org/2000/svg" width="24" height="24" viewBox="0 0 24 24">
  <path d="M15.6610864,4.00332907 L13.5023957,4 C11.0771806,4 9.50990013,5.5455198 9.50990013,7.93762159 L9.50990013,9.7531288 L7.33943312,9.7531288 C7.151879,9.7531288 7,9.89927489 7,10.0795439 L7,12.710007 C7,12.890276 7.15205218,13.0362556 7.33943312,13.0362556 L9.50990013,13.0362556 L9.50990013,19.6737513 C9.50990013,19.8540204 9.66177914,20 9.84933326,20 L12.6811753,20 C12.8687294,20 13.0206084,19.8538539 13.0206084,19.6737513 L13.0206084,13.0362556 L15.5583906,13.0362556 C15.7459447,13.0362556 15.8978237,12.890276 15.8978237,12.710007 L15.8988628,10.0795439 C15.8988628,9.99298815 15.8630145,9.91009436 15.7994574,9.84883951 C15.7359002,9.78758466 15.6493102,9.7531288 15.5592565,9.7531288 L13.0206084,9.7531288 L13.0206084,8.21410068 C13.0206084,7.47438178 13.2040062,7.09886292 14.2065462,7.09886292 L15.6607401,7.09836356 C15.848121,7.09836356 16,6.95221747 16,6.77211489 L16,4.32957773 C16,4.14964161 15.8482942,4.00366197 15.6610864,4.00332907 Z"/>
</svg>
