<svg xmlns="http://www.w3.org/2000/svg" width="24" height="24" viewBox="0 0 24 24">
  <path d="M12.243251,2 C8.24930083,2 5,5.24930083 5,9.24321195 C5,14.1997805 11.4820001,21.4763128 11.757977,21.7836569 C12.0171961,22.0723682 12.4697747,22.0718604 12.728525,21.7836569 C13.0045019,21.4763128 19.486502,14.1997805 19.486502,9.24321195 C19.4864239,5.24930083 16.2371621,2 12.243251,2 Z M12.243251,12.8874742 C10.2337954,12.8874742 8.59902782,11.2526675 8.59902782,9.24321195 C8.59902782,7.23375638 10.2338345,5.59898876 12.243251,5.59898876 C14.2526675,5.59898876 15.8874351,7.23379544 15.8874351,9.24325101 C15.8874351,11.2527066 14.2526675,12.8874742 12.243251,12.8874742 Z"/>
</svg>
