<svg xmlns="http://www.w3.org/2000/svg" width="24" height="24" viewBox="0 0 24 24">
  <path fill-rule="evenodd" d="M11.9974921,4 C14.1694603,4 14.4418095,4.00920635 15.2948254,4.04812698 C16.1460635,4.08695238 16.7274286,4.22215873 17.236127,4.41987302 C17.7620317,4.62422222 18.2080317,4.89768254 18.6526667,5.34228571 C19.0972698,5.78692063 19.3707302,6.23292063 19.5751111,6.7588254 C19.7727937,7.26752381 19.908,7.84888889 19.9468254,8.70012698 C19.985746,9.55314286 19.9949524,9.82549206 19.9949524,11.9974921 C19.9949524,14.1694603 19.985746,14.4418095 19.9468254,15.2948254 C19.908,16.1460635 19.7727937,16.7274286 19.5751111,17.236127 C19.3707302,17.7620317 19.0972698,18.2080317 18.6526667,18.6526667 C18.2080317,19.0972698 17.7620317,19.3707302 17.236127,19.5751111 C16.7274286,19.7727937 16.1460635,19.908 15.2948254,19.9468254 C14.4418095,19.985746 14.1694603,19.9949524 11.9974921,19.9949524 C9.82549206,19.9949524 9.55314286,19.985746 8.70012698,19.9468254 C7.84888889,19.908 7.26752381,19.7727937 6.7588254,19.5751111 C6.23292063,19.3707302 5.78692063,19.0972698 5.34228571,18.6526667 C4.89768254,18.2080317 4.62422222,17.7620317 4.41987302,17.236127 C4.22215873,16.7274286 4.08695238,16.1460635 4.04812698,15.2948254 C4.00920635,14.4418095 4,14.1694603 4,11.9974921 C4,9.82549206 4.00920635,9.55314286 4.04812698,8.70012698 C4.08695238,7.84888889 4.22215873,7.26752381 4.41987302,6.7588254 C4.62422222,6.23292063 4.89768254,5.78692063 5.34228571,5.34228571 C5.78692063,4.89768254 6.23292063,4.62422222 6.7588254,4.41987302 C7.26752381,4.22215873 7.84888889,4.08695238 8.70012698,4.04812698 C9.55314286,4.00920635 9.82549206,4 11.9974921,4 Z M12.0000162,14.7150878 C10.4977037,14.7150878 9.27986463,13.4972487 9.27986463,11.9949686 C9.27986463,10.4926561 10.4977037,9.27481701 12.0000162,9.27481701 C13.5022963,9.27481701 14.7201354,10.4926561 14.7201354,11.9949686 C14.7201354,13.4972487 13.5022963,14.7150878 12.0000162,14.7150878 Z M12.0000162,7.80447619 C9.68564902,7.80447619 7.80952381,9.6806014 7.80952381,11.9949686 C7.80952381,14.3093034 9.68564902,16.1854286 12.0000162,16.1854286 C14.314351,16.1854286 16.1904762,14.3093034 16.1904762,11.9949686 C16.1904762,9.6806014 14.314351,7.80447619 12.0000162,7.80447619 Z M17.3333333,7.61401575 C17.3333333,7.08802537 16.906927,6.66161905 16.3809366,6.66161905 C15.8549777,6.66161905 15.4285714,7.08802537 15.4285714,7.61401575 C15.4285714,8.14000614 15.8549777,8.56638095 16.3809366,8.56638095 C16.906927,8.56638095 17.3333333,8.14000614 17.3333333,7.61401575 Z"/>
</svg>
