<svg xmlns="http://www.w3.org/2000/svg" width="85" height="85" viewBox="0 0 85 85">
  <g fill="none" fill-rule="evenodd">
    <rect width="54" height="54" x="15.5" y="15.5" stroke="#000" transform="rotate(45 42.5 42.5)"/>
    <path fill="#000" d="M42.9974921,35 C45.1694603,35 45.4418095,35.0092063 46.2948254,35.048127 C47.1460635,35.0869524 47.7274286,35.2221587 48.236127,35.419873 C48.7620317,35.6242222 49.2080317,35.8976825 49.6526667,36.3422857 C50.0972698,36.7869206 50.3707302,37.2329206 50.5751111,37.7588254 C50.7727937,38.2675238 50.908,38.8488889 50.9468254,39.700127 C50.985746,40.5531429 50.9949524,40.8254921 50.9949524,42.9974921 C50.9949524,45.1694603 50.985746,45.4418095 50.9468254,46.2948254 C50.908,47.1460635 50.7727937,47.7274286 50.5751111,48.236127 C50.3707302,48.7620317 50.0972698,49.2080317 49.6526667,49.6526667 C49.2080317,50.0972698 48.7620317,50.3707302 48.236127,50.5751111 C47.7274286,50.7727937 47.1460635,50.908 46.2948254,50.9468254 C45.4418095,50.985746 45.1694603,50.9949524 42.9974921,50.9949524 C40.8254921,50.9949524 40.5531429,50.985746 39.700127,50.9468254 C38.8488889,50.908 38.2675238,50.7727937 37.7588254,50.5751111 C37.2329206,50.3707302 36.7869206,50.0972698 36.3422857,49.6526667 C35.8976825,49.2080317 35.6242222,48.7620317 35.419873,48.236127 C35.2221587,47.7274286 35.0869524,47.1460635 35.048127,46.2948254 C35.0092063,45.4418095 35,45.1694603 35,42.9974921 C35,40.8254921 35.0092063,40.5531429 35.048127,39.700127 C35.0869524,38.8488889 35.2221587,38.2675238 35.419873,37.7588254 C35.6242222,37.2329206 35.8976825,36.7869206 36.3422857,36.3422857 C36.7869206,35.8976825 37.2329206,35.6242222 37.7588254,35.419873 C38.2675238,35.2221587 38.8488889,35.0869524 39.700127,35.048127 C40.5531429,35.0092063 40.8254921,35 42.9974921,35 Z M43.0000162,45.7150878 C41.4977037,45.7150878 40.2798646,44.4972487 40.2798646,42.9949686 C40.2798646,41.4926561 41.4977037,40.274817 43.0000162,40.274817 C44.5022963,40.274817 45.7201354,41.4926561 45.7201354,42.9949686 C45.7201354,44.4972487 44.5022963,45.7150878 43.0000162,45.7150878 Z M43.0000162,38.8044762 C40.685649,38.8044762 38.8095238,40.6806014 38.8095238,42.9949686 C38.8095238,45.3093034 40.685649,47.1854286 43.0000162,47.1854286 C45.314351,47.1854286 47.1904762,45.3093034 47.1904762,42.9949686 C47.1904762,40.6806014 45.314351,38.8044762 43.0000162,38.8044762 Z M48.3333333,38.6140158 C48.3333333,38.0880254 47.906927,37.661619 47.3809366,37.661619 C46.8549777,37.661619 46.4285714,38.0880254 46.4285714,38.6140158 C46.4285714,39.1400061 46.8549777,39.566381 47.3809366,39.566381 C47.906927,39.566381 48.3333333,39.1400061 48.3333333,38.6140158 Z"/>
  </g>
</svg>
