<svg xmlns="http://www.w3.org/2000/svg" width="24" height="24" viewBox="0 0 24 24">
  <g transform="translate(2 4)">
    <path d="M17.5922686 15.1073321C18.0416697 15.1073321 18.4310708 14.9589474 18.7621053 14.6659528L13.0978947 9.0015245C12.9619964 9.09883848 12.8302722 9.19346642 12.7058439 9.28344828 12.2819601 9.59575318 11.937931 9.83945554 11.6737568 10.0140835 11.4096189 10.1891107 11.0581851 10.3675136 10.6194918 10.5496552 10.1805082 10.7320145 9.77154265 10.8229038 9.39215971 10.8229038L9.38105263 10.8229038 9.36994555 10.8229038C8.99052632 10.8229038 8.5815608 10.7320508 8.14261343 10.5496552 7.70366606 10.3675136 7.3522323 10.1891107 7.08834846 10.0140835 6.82421053 9.83945554 6.48036298 9.59578947 6.05626134 9.28344828 5.93807623 9.19680581 5.80700544 9.10174229 5.66529946 9L0 14.6659528C.330998185 14.9589474.720653358 15.1073321 1.17001815 15.1073321L17.5922686 15.1073321zM1.12693285 5.9707441C.703085299 5.68816697.32722323 5.36453721 0 5L0 13.6179673 4.99241379 8.62555354C3.99364791 7.92827586 2.70678766 7.04435572 1.12693285 5.9707441zM18.8747731 5.9707441C17.3551724 6.99927405 16.0636298 7.88471869 15 8.62754991L19.9904174 13.6181851 19.9904174 5C19.6704537 5.35720508 19.2986207 5.68061706 18.8747731 5.9707441z"/>
    <path d="M18.2071506,0 L1.78493648,0 C1.21201452,0 0.77154265,0.193466425 0.462976407,0.58 C0.15415608,0.966715064 0,1.45034483 0,2.03034483 C0,2.49883848 0.204573503,3.00646098 0.61353902,3.55335753 C1.02250454,4.1000363 1.45767695,4.52943739 1.91883848,4.84177858 C2.17165154,5.02039927 2.93404719,5.55041742 4.20602541,6.43165154 C4.89266788,6.90747731 5.48980036,7.32221416 6.00294011,7.68010889 C6.44032668,7.98486388 6.81753176,8.24878403 7.12896552,8.46780399 C7.16471869,8.49288566 7.22094374,8.53310345 7.29557169,8.58646098 C7.37597096,8.64421053 7.47771325,8.71749546 7.60323049,8.80813067 C7.84493648,8.98294011 8.04573503,9.12424682 8.20566243,9.23219601 C8.36537205,9.34018149 8.55887477,9.46079855 8.78588022,9.59473684 C9.01270417,9.72849365 9.22664247,9.82907441 9.42744102,9.89597096 C9.62827586,9.96283122 9.81419238,9.99637024 9.98522686,9.99637024 L9.99633394,9.99637024 L10.007441,9.99637024 C10.1784392,9.99637024 10.364392,9.96283122 10.5652632,9.89597096 C10.7660254,9.82907441 10.9797822,9.72871143 11.2067877,9.59473684 C11.4335753,9.46079855 11.626824,9.3399274 11.7870417,9.23219601 C11.9469691,9.12424682 12.1477677,8.98297641 12.38951,8.80813067 C12.5147731,8.71749546 12.6165154,8.64417423 12.6969147,8.58664247 C12.7715789,8.53306715 12.8277677,8.49310345 12.8637387,8.46780399 C13.1063521,8.29898367 13.4844283,8.03615245 13.9927405,7.68319419 C14.917677,7.04054446 16.2798548,6.09466425 18.0850091,4.84177858 C18.6279129,4.46257713 19.0814882,4.00497278 19.4460254,3.46961887 C19.8099093,2.93426497 19.9923412,2.37270417 19.9923412,1.78511797 C19.9923412,1.29419238 19.8154628,0.874119782 19.4624682,0.524246824 C19.1090744,0.174809437 18.6905989,0 18.2071506,0 Z"/>
  </g>
</svg>
