<svg xmlns="http://www.w3.org/2000/svg" width="24" height="24" viewBox="0 0 24 24">
  <path d="M18.1383559,14.2602874 C17.4878199,13.6180559 16.6756858,13.6180559 16.0292934,14.2602874 C15.536212,14.749212 15.0431306,15.2381366 14.5583363,15.7353481 C14.4257429,15.8720813 14.3138673,15.9010853 14.1522692,15.8099298 C13.8332165,15.6359058 13.4934462,15.4950292 13.1868241,15.3044315 C11.7573024,14.4053074 10.559819,13.2492907 9.49907242,11.948254 C8.97284268,11.3018791 8.50462253,10.6099265 8.17728277,9.83096184 C8.11098611,9.67351154 8.12341673,9.56992582 8.25186651,9.44147952 C8.74494792,8.96498519 9.2255987,8.47606057 9.71039302,7.98713595 C10.3857902,7.3076136 10.3857902,6.51207524 9.70624948,5.82840946 C9.32090015,5.43892714 8.93555081,5.05773168 8.55020148,4.66824935 C8.15242152,4.27048017 7.7587851,3.86856756 7.35686161,3.47494181 C6.70632563,2.84099718 5.89419155,2.84099718 5.24779912,3.47908524 C4.75057417,3.96800986 4.27406693,4.46936476 3.7685549,4.95000252 C3.30033474,5.39334942 3.06415289,5.93613862 3.0144304,6.57008325 C2.93570312,7.60179706 3.18845913,8.57550287 3.54480368,9.5243481 C4.27406693,11.4883334 5.38453598,13.232717 6.73118688,14.8320806 C8.55020148,16.9949505 10.7214171,18.7061867 13.2614079,19.9409285 C14.4050252,20.496148 15.590078,20.9229212 16.8787193,20.9933595 C17.7654372,21.0430806 18.5361358,20.8193355 19.1535235,20.1273828 C19.5761647,19.6550319 20.0526719,19.2241153 20.5001744,18.7724816 C21.163141,18.1012461 21.1672845,17.289134 20.5084615,16.6261853 C19.7211886,15.8347904 18.9297723,15.0475389 18.1383559,14.2602874 Z"/>
</svg>
